ISO-10303-21;
HEADER;
FILE_DESCRIPTION(('STEP AP214'),
    '1');
FILE_NAME('Захват_крышка',
    '2026-03-12T16:13:17',
    (''),
    (''),
    'C3D Converter',
    'C3D Toolkit',
    '');
/**/
FILE_SCHEMA(('AUTOMOTIVE_DESIGN { 1 0 10303 214 3 1 1}'));
ENDSEC;

DATA;
#1=PRODUCT_DEFINITION('','UNSPECIFIED',#18,#21);
#2=SHAPE_DEFINITION_REPRESENTATION(#16,#3);
#3=SHAPE_REPRESENTATION('NONE',(#4),#8);
#4=AXIS2_PLACEMENT_3D('',#5,#6,#7);
#5=CARTESIAN_POINT('',(0.,0.,0.));
#6=DIRECTION('',(0.,0.,1.));
#7=DIRECTION('',(1.,0.,0.));
#8=(GEOMETRIC_REPRESENTATION_CONTEXT(3)GLOBAL_UNCERTAINTY_ASSIGNED_CONTEXT((#10))
GLOBAL_UNIT_ASSIGNED_CONTEXT((#9,#11,#12))REPRESENTATION_CONTEXT('NONE','NONE'));
#9=(LENGTH_UNIT()NAMED_UNIT(*)SI_UNIT(.MILLI.,.METRE.));
#10=UNCERTAINTY_MEASURE_WITH_UNIT(LENGTH_MEASURE(1.E-5),#9,'NONE','NONE');
#11=(NAMED_UNIT(*)PLANE_ANGLE_UNIT()SI_UNIT($,.RADIAN.));
#12=(NAMED_UNIT(*)SI_UNIT($,.STERADIAN.)SOLID_ANGLE_UNIT());
#13=GEOMETRIC_CURVE_SET('',(#43,#51,#57,#63,#69,#75,#81,#87,#93,#99,#105,#111,#117,
#123,#129,#135,#141,#147,#153,#159,#165,#171,#177));
#14=GEOMETRICALLY_BOUNDED_WIREFRAME_SHAPE_REPRESENTATION('NONE',(#13),#8);
#15=SHAPE_REPRESENTATION_RELATIONSHIP('','',#3,#14);
#16=PRODUCT_DEFINITION_SHAPE('NONE','NONE',#1);
#17=MECHANICAL_CONTEXT('NONE',#22,'mechanical');
#18=PRODUCT_DEFINITION_FORMATION_WITH_SPECIFIED_SOURCE('ANY','UNSPECIFIED',#19,.NOT_KNOWN.);
#19=PRODUCT('','\X2\041704300445043204300442\X0\_\X2\043A0440044B0448043A0430\X0\',
'NONE',(#17));
#20=PRODUCT_RELATED_PRODUCT_CATEGORY('detail','',(#19));
#21=DESIGN_CONTEXT('detailed design',#22,'design');
#22=APPLICATION_CONTEXT('configuration controlled 3d designs of mechanical parts and assemblies');
#23=APPLICATION_PROTOCOL_DEFINITION('international standard','config_control_design',
1994,#22);
#24=CC_DESIGN_DATE_AND_TIME_ASSIGNMENT(#25,#29,(#1));
#25=DATE_AND_TIME(#26,#27);
#26=CALENDAR_DATE(0,1,1);
#27=LOCAL_TIME(0,0,0.,#28);
#28=COORDINATED_UNIVERSAL_TIME_OFFSET(0,0,.AHEAD.);
#29=DATE_TIME_ROLE('creation_date');
#30=CC_DESIGN_APPROVAL(#31,(#1));
#31=APPROVAL(#32,'UNSPECIFIED');
#32=APPROVAL_STATUS('not_yet_approved');
#33=APPROVAL_DATE_TIME(#34,#31);
#34=DATE_AND_TIME(#35,#36);
#35=CALENDAR_DATE(0,1,1);
#36=LOCAL_TIME(0,0,0.,#37);
#37=COORDINATED_UNIVERSAL_TIME_OFFSET(0,0,.AHEAD.);
#38=PERSON('UNSPECIFIED','UNSPECIFIED','UNSPECIFIED',('UNSPECIFIED'),('UNSPECIFIED'),
('UNSPECIFIED'));
#39=ORGANIZATION('UNSPECIFIED','UNSPECIFIED','UNSPECIFIED');
#40=PERSON_AND_ORGANIZATION(#38,#39);
#41=PERSON_AND_ORGANIZATION_ROLE('creator');
#42=CC_DESIGN_PERSON_AND_ORGANIZATION_ASSIGNMENT(#40,#41,(#18,#1));
#43=POLYLINE('',(#182,#183));
#44=COLOUR_RGB('',0.2,0.674509803921569,0.792156862745098);
#45=PRESENTATION_STYLE_ASSIGNMENT((#46));
#46=CURVE_STYLE('',#47,POSITIVE_LENGTH_MEASURE(0.1),#44);
#47=PRE_DEFINED_CURVE_FONT('continuous');
#48=MECHANICAL_DESIGN_GEOMETRIC_PRESENTATION_REPRESENTATION('NONE',(#49,#56,#62,
#68,#74,#80,#86,#92,#98,#104,#110,#116,#122,#128,#134,#140,#146,#152,#158,#164,#170,
#176,#181),#8);
#49=STYLED_ITEM('',(#45),#43);
#50=INVISIBILITY((#49,#56,#62,#68,#74,#80,#86,#92,#98,#104,#110,#116,#122,#128,#134,
#140,#146,#152,#158,#164,#170,#176,#181));
#51=POLYLINE('',(#184,#185));
#52=COLOUR_RGB('',0.2,0.674509803921569,0.792156862745098);
#53=PRESENTATION_STYLE_ASSIGNMENT((#54));
#54=CURVE_STYLE('',#55,POSITIVE_LENGTH_MEASURE(0.1),#52);
#55=PRE_DEFINED_CURVE_FONT('continuous');
#56=STYLED_ITEM('',(#53),#51);
#57=POLYLINE('',(#186,#187));
#58=COLOUR_RGB('',0.2,0.674509803921569,0.792156862745098);
#59=PRESENTATION_STYLE_ASSIGNMENT((#60));
#60=CURVE_STYLE('',#61,POSITIVE_LENGTH_MEASURE(0.1),#58);
#61=PRE_DEFINED_CURVE_FONT('continuous');
#62=STYLED_ITEM('',(#59),#57);
#63=POLYLINE('',(#188,#189));
#64=COLOUR_RGB('',0.2,0.674509803921569,0.792156862745098);
#65=PRESENTATION_STYLE_ASSIGNMENT((#66));
#66=CURVE_STYLE('',#67,POSITIVE_LENGTH_MEASURE(0.1),#64);
#67=PRE_DEFINED_CURVE_FONT('continuous');
#68=STYLED_ITEM('',(#65),#63);
#69=POLYLINE('',(#190,#191));
#70=COLOUR_RGB('',0.2,0.674509803921569,0.792156862745098);
#71=PRESENTATION_STYLE_ASSIGNMENT((#72));
#72=CURVE_STYLE('',#73,POSITIVE_LENGTH_MEASURE(0.1),#70);
#73=PRE_DEFINED_CURVE_FONT('continuous');
#74=STYLED_ITEM('',(#71),#69);
#75=POLYLINE('',(#192,#193));
#76=COLOUR_RGB('',0.2,0.674509803921569,0.792156862745098);
#77=PRESENTATION_STYLE_ASSIGNMENT((#78));
#78=CURVE_STYLE('',#79,POSITIVE_LENGTH_MEASURE(0.1),#76);
#79=PRE_DEFINED_CURVE_FONT('continuous');
#80=STYLED_ITEM('',(#77),#75);
#81=POLYLINE('',(#194,#195));
#82=COLOUR_RGB('',0.2,0.674509803921569,0.792156862745098);
#83=PRESENTATION_STYLE_ASSIGNMENT((#84));
#84=CURVE_STYLE('',#85,POSITIVE_LENGTH_MEASURE(0.1),#82);
#85=PRE_DEFINED_CURVE_FONT('continuous');
#86=STYLED_ITEM('',(#83),#81);
#87=TRIMMED_CURVE('',#196,(PARAMETER_VALUE(0.)),(PARAMETER_VALUE(2.09754843608883)),
.T.,.PARAMETER.);
#88=COLOUR_RGB('',0.2,0.674509803921569,0.792156862745098);
#89=PRESENTATION_STYLE_ASSIGNMENT((#90));
#90=CURVE_STYLE('',#91,POSITIVE_LENGTH_MEASURE(0.1),#88);
#91=PRE_DEFINED_CURVE_FONT('continuous');
#92=STYLED_ITEM('',(#89),#87);
#93=TRIMMED_CURVE('',#197,(PARAMETER_VALUE(0.)),(PARAMETER_VALUE(0.353822450661967)),
.T.,.PARAMETER.);
#94=COLOUR_RGB('',0.2,0.674509803921569,0.792156862745098);
#95=PRESENTATION_STYLE_ASSIGNMENT((#96));
#96=CURVE_STYLE('',#97,POSITIVE_LENGTH_MEASURE(0.1),#94);
#97=PRE_DEFINED_CURVE_FONT('continuous');
#98=STYLED_ITEM('',(#95),#93);
#99=TRIMMED_CURVE('',#198,(PARAMETER_VALUE(0.)),(PARAMETER_VALUE(2.09754843615658)),
.T.,.PARAMETER.);
#100=COLOUR_RGB('',0.2,0.674509803921569,0.792156862745098);
#101=PRESENTATION_STYLE_ASSIGNMENT((#102));
#102=CURVE_STYLE('',#103,POSITIVE_LENGTH_MEASURE(0.1),#100);
#103=PRE_DEFINED_CURVE_FONT('continuous');
#104=STYLED_ITEM('',(#101),#99);
#105=TRIMMED_CURVE('',#199,(PARAMETER_VALUE(0.)),(PARAMETER_VALUE(0.353822450651257)),
.T.,.PARAMETER.);
#106=COLOUR_RGB('',0.2,0.674509803921569,0.792156862745098);
#107=PRESENTATION_STYLE_ASSIGNMENT((#108));
#108=CURVE_STYLE('',#109,POSITIVE_LENGTH_MEASURE(0.1),#106);
#109=PRE_DEFINED_CURVE_FONT('continuous');
#110=STYLED_ITEM('',(#107),#105);
#111=TRIMMED_CURVE('',#200,(PARAMETER_VALUE(0.)),(PARAMETER_VALUE(2.35681748784978)),
.T.,.PARAMETER.);
#112=COLOUR_RGB('',0.2,0.674509803921569,0.792156862745098);
#113=PRESENTATION_STYLE_ASSIGNMENT((#114));
#114=CURVE_STYLE('',#115,POSITIVE_LENGTH_MEASURE(0.1),#112);
#115=PRE_DEFINED_CURVE_FONT('continuous');
#116=STYLED_ITEM('',(#113),#111);
#117=TRIMMED_CURVE('',#201,(PARAMETER_VALUE(0.)),(PARAMETER_VALUE(1.5720423221234)),
.T.,.PARAMETER.);
#118=COLOUR_RGB('',0.2,0.674509803921569,0.792156862745098);
#119=PRESENTATION_STYLE_ASSIGNMENT((#120));
#120=CURVE_STYLE('',#121,POSITIVE_LENGTH_MEASURE(0.1),#118);
#121=PRE_DEFINED_CURVE_FONT('continuous');
#122=STYLED_ITEM('',(#119),#117);
#123=TRIMMED_CURVE('',#202,(PARAMETER_VALUE(0.)),(PARAMETER_VALUE(2.35681748786055)),
.T.,.PARAMETER.);
#124=COLOUR_RGB('',0.2,0.674509803921569,0.792156862745098);
#125=PRESENTATION_STYLE_ASSIGNMENT((#126));
#126=CURVE_STYLE('',#127,POSITIVE_LENGTH_MEASURE(0.1),#124);
#127=PRE_DEFINED_CURVE_FONT('continuous');
#128=STYLED_ITEM('',(#125),#123);
#129=CIRCLE('',#203,1.6);
#130=COLOUR_RGB('',0.2,0.674509803921569,0.792156862745098);
#131=PRESENTATION_STYLE_ASSIGNMENT((#132));
#132=CURVE_STYLE('',#133,POSITIVE_LENGTH_MEASURE(0.1),#130);
#133=PRE_DEFINED_CURVE_FONT('continuous');
#134=STYLED_ITEM('',(#131),#129);
#135=CIRCLE('',#207,1.6);
#136=COLOUR_RGB('',0.2,0.674509803921569,0.792156862745098);
#137=PRESENTATION_STYLE_ASSIGNMENT((#138));
#138=CURVE_STYLE('',#139,POSITIVE_LENGTH_MEASURE(0.1),#136);
#139=PRE_DEFINED_CURVE_FONT('continuous');
#140=STYLED_ITEM('',(#137),#135);
#141=CIRCLE('',#211,1.6);
#142=COLOUR_RGB('',0.2,0.674509803921569,0.792156862745098);
#143=PRESENTATION_STYLE_ASSIGNMENT((#144));
#144=CURVE_STYLE('',#145,POSITIVE_LENGTH_MEASURE(0.1),#142);
#145=PRE_DEFINED_CURVE_FONT('continuous');
#146=STYLED_ITEM('',(#143),#141);
#147=TRIMMED_CURVE('',#215,(PARAMETER_VALUE(0.)),(PARAMETER_VALUE(0.34585931757129)),
.T.,.PARAMETER.);
#148=COLOUR_RGB('',0.2,0.674509803921569,0.792156862745098);
#149=PRESENTATION_STYLE_ASSIGNMENT((#150));
#150=CURVE_STYLE('',#151,POSITIVE_LENGTH_MEASURE(0.1),#148);
#151=PRE_DEFINED_CURVE_FONT('continuous');
#152=STYLED_ITEM('',(#149),#147);
#153=CIRCLE('',#216,1.6);
#154=COLOUR_RGB('',0.2,0.674509803921569,0.792156862745098);
#155=PRESENTATION_STYLE_ASSIGNMENT((#156));
#156=CURVE_STYLE('',#157,POSITIVE_LENGTH_MEASURE(0.1),#154);
#157=PRE_DEFINED_CURVE_FONT('continuous');
#158=STYLED_ITEM('',(#155),#153);
#159=POLYLINE('',(#220,#221));
#160=COLOUR_RGB('',0.2,0.674509803921569,0.792156862745098);
#161=PRESENTATION_STYLE_ASSIGNMENT((#162));
#162=CURVE_STYLE('',#163,POSITIVE_LENGTH_MEASURE(0.1),#160);
#163=PRE_DEFINED_CURVE_FONT('continuous');
#164=STYLED_ITEM('',(#161),#159);
#165=POLYLINE('',(#222,#223));
#166=COLOUR_RGB('',0.2,0.674509803921569,0.792156862745098);
#167=PRESENTATION_STYLE_ASSIGNMENT((#168));
#168=CURVE_STYLE('',#169,POSITIVE_LENGTH_MEASURE(0.1),#166);
#169=PRE_DEFINED_CURVE_FONT('continuous');
#170=STYLED_ITEM('',(#167),#165);
#171=POLYLINE('',(#224,#225));
#172=COLOUR_RGB('',0.2,0.674509803921569,0.792156862745098);
#173=PRESENTATION_STYLE_ASSIGNMENT((#174));
#174=CURVE_STYLE('',#175,POSITIVE_LENGTH_MEASURE(0.1),#172);
#175=PRE_DEFINED_CURVE_FONT('continuous');
#176=STYLED_ITEM('',(#173),#171);
#177=CARTESIAN_POINT('',(49.4626866672818,-6.05743209043151E-15,0.));
#178=COLOUR_RGB('',0.501960784313725,0.,1.);
#179=PRESENTATION_STYLE_ASSIGNMENT((#180));
#180=POINT_STYLE('',MARKER_TYPE(.DOT.),POSITIVE_LENGTH_MEASURE(0.1),#178);
#181=STYLED_ITEM('',(#179),#177);
#182=CARTESIAN_POINT('',(55.4626866672818,11.25,0.));
#183=CARTESIAN_POINT('',(43.4626866672818,11.25,0.));
#184=CARTESIAN_POINT('',(43.4626866672818,11.25,0.));
#185=CARTESIAN_POINT('',(43.4626866672818,-1.27005025156894,0.));
#186=CARTESIAN_POINT('',(43.4626866672818,-11.25,0.));
#187=CARTESIAN_POINT('',(45.4827369188507,-11.25,0.));
#188=CARTESIAN_POINT('',(55.4626866672818,-11.25,0.));
#189=CARTESIAN_POINT('',(55.4626866672818,-9.22994974843107,0.));
#190=CARTESIAN_POINT('',(55.4626866672818,-1.27005025156894,0.));
#191=CARTESIAN_POINT('',(55.4626866672818,11.25,0.));
#192=CARTESIAN_POINT('',(43.4626866672818,-9.22994974843107,0.));
#193=CARTESIAN_POINT('',(43.4626866672818,-11.25,0.));
#194=CARTESIAN_POINT('',(53.4426364157128,-11.25,0.));
#195=CARTESIAN_POINT('',(55.4626866672818,-11.25,0.));
#196=CIRCLE('',#226,10.);
#197=CIRCLE('',#230,77.1743079414504);
#198=CIRCLE('',#234,10.);
#199=CIRCLE('',#238,77.1743079414504);
#200=CIRCLE('',#242,4.60000000040402);
#201=CIRCLE('',#246,16.5999999999969);
#202=CIRCLE('',#250,4.59999999991598);
#203=AXIS2_PLACEMENT_3D('',#204,#205,#206);
#204=CARTESIAN_POINT('',(68.0620818187376,15.,0.));
#205=DIRECTION('',(0.,0.,1.));
#206=DIRECTION('',(-1.,1.22464679914735E-16,0.));
#207=AXIS2_PLACEMENT_3D('',#208,#209,#210);
#208=CARTESIAN_POINT('',(37.8574046017591,15.,0.));
#209=DIRECTION('',(0.,0.,1.));
#210=DIRECTION('',(-1.,1.22464679914735E-16,0.));
#211=AXIS2_PLACEMENT_3D('',#212,#213,#214);
#212=CARTESIAN_POINT('',(37.8574046017977,-15.,0.));
#213=DIRECTION('',(0.,0.,1.));
#214=DIRECTION('',(-1.,1.22464679914735E-16,0.));
#215=CIRCLE('',#254,77.1743079414504);
#216=AXIS2_PLACEMENT_3D('',#217,#218,#219);
#217=CARTESIAN_POINT('',(68.0620818187376,-15.,0.));
#218=DIRECTION('',(0.,0.,1.));
#219=DIRECTION('',(-1.,1.22464679914735E-16,0.));
#220=CARTESIAN_POINT('',(55.4626866672818,-9.22994974843107,0.));
#221=CARTESIAN_POINT('',(55.4626866672818,-1.27005025156894,0.));
#222=CARTESIAN_POINT('',(43.4626866672818,-9.22994974843107,0.));
#223=CARTESIAN_POINT('',(43.4626866672818,-1.27005025156894,0.));
#224=CARTESIAN_POINT('',(53.4426364157128,-11.25,0.));
#225=CARTESIAN_POINT('',(45.4827369188507,-11.25,0.));
#226=AXIS2_PLACEMENT_3D('',#227,#228,#229);
#227=CARTESIAN_POINT('',(68.0620818187376,-15.,0.));
#228=DIRECTION('',(0.,0.,-1.));
#229=DIRECTION('',(0.985084891491162,0.172069045896829,0.));
#230=AXIS2_PLACEMENT_3D('',#231,#232,#233);
#231=CARTESIAN_POINT('',(37.857404601557,-96.7743079418544,0.));
#232=DIRECTION('',(0.,0.,1.));
#233=DIRECTION('',(0.346485999498897,0.938055143449067,0.));
#234=AXIS2_PLACEMENT_3D('',#235,#236,#237);
#235=CARTESIAN_POINT('',(68.0620818187376,15.,0.));
#236=DIRECTION('',(0.,0.,-1.));
#237=DIRECTION('',(-0.346485999490326,0.938055143452233,0.));
#238=AXIS2_PLACEMENT_3D('',#239,#240,#241);
#239=CARTESIAN_POINT('',(37.8574046017667,96.7743079413663,0.));
#240=DIRECTION('',(0.,0.,1.));
#241=DIRECTION('',(-9.26222743347386E-14,-1.,0.));
#242=AXIS2_PLACEMENT_3D('',#243,#244,#245);
#243=CARTESIAN_POINT('',(37.8574046017977,-15.,0.));
#244=DIRECTION('',(0.,0.,-1.));
#245=DIRECTION('',(-2.94411837878218E-12,-1.,0.));
#246=AXIS2_PLACEMENT_3D('',#247,#248,#249);
#247=CARTESIAN_POINT('',(22.8760828975878,-9.66573807460032E-11,0.));
#248=DIRECTION('',(0.,0.,1.));
#249=DIRECTION('',(0.706666118121434,-0.707547169805083,0.));
#250=AXIS2_PLACEMENT_3D('',#251,#252,#253);
#251=CARTESIAN_POINT('',(37.8574046017591,15.,0.));
#252=DIRECTION('',(0.,0.,-1.));
#253=DIRECTION('',(-0.706666118115964,-0.707547169810547,0.));
#254=AXIS2_PLACEMENT_3D('',#255,#256,#257);
#255=CARTESIAN_POINT('',(153.93617549756,5.64488851275803E-15,0.));
#256=DIRECTION('',(0.,0.,1.));
#257=DIRECTION('',(-0.985084891478236,0.172069045970832,0.));
ENDSEC;
END-ISO-10303-21;
